<?xml version="1.0" encoding="UTF-8" standalone="no"?>

<svg width="59.07378mm" height="45.528999mm" viewBox="0 0 59.07378 45.528999" version="1.1" xml:space="preserve" xmlns="http://www.w3.org/2000/svg" xmlns:svg="http://www.w3.org/2000/svg">
	<g>
		<path
		style="fill:currentColor;stroke-width:0.264581"
		d="M 5.9503234,44.24773 C 3.2459055,43.556829 0.88709754,42.901251 0.70852813,42.790889 0.21200556,42.484022 -0.13243437,41.357327 0.04912701,40.633929 0.16589897,40.168674 1.5654634,39.042625 5.0104527,36.642193 7.6497212,34.803178 9.9103471,33.209975 10.034066,33.101743 10.157784,32.993508 8.8556555,32.578611 7.1404457,32.179744 3.1718561,31.256867 2.1365474,30.34864 3.068371,28.607512 c 0.6218545,-1.161947 1.0312039,-1.145686 7.079704,0.281239 3.220998,0.759877 5.955453,1.544756 6.222076,1.785943 0.34021,0.307755 0.453229,0.732778 0.39687,1.492532 -0.0781,1.053398 -0.118479,1.090411 -4.841251,4.442101 -2.6193516,1.858917 -4.7624575,3.470641 -4.7624575,3.581609 0,0.110968 1.3078404,0.530648 2.9063115,0.932626 3.207268,0.806551 3.928696,1.28453 3.928696,2.602927 0,1.106239 -0.875551,1.833768 -2.168007,1.801478 -0.529577,-0.01323 -3.1755717,-0.589335 -5.8799896,-1.280237 z m 9.4811376,-2.950198 c -0.597848,-0.348215 -1.256753,-1.627517 -1.256753,-2.440058 0,-0.858354 0.439581,-1.430952 6.029302,-7.85376 l 4.838687,-5.559844 h -4.46883 c -4.196484,0 -4.522621,-0.03628 -5.35133,-0.595308 -1.149614,-0.775502 -1.491234,-1.990558 -0.906253,-3.223315 0.234542,-0.494261 0.742192,-1.016473 1.133747,-1.16627 1.143691,-0.437543 15.713181,-0.558585 16.711462,-0.138837 0.931442,0.391641 1.720675,1.930051 1.480687,2.886231 -0.0825,0.328755 -2.543407,3.377679 -5.468661,6.775383 l -5.318633,6.177645 4.589519,0.135563 c 2.524238,0.07456 4.802278,0.237816 5.062325,0.362788 0.561615,0.269913 1.246969,1.508827 1.246969,2.254161 0,0.894594 -0.595575,1.898411 -1.361278,2.29437 -0.584285,0.302146 -2.294999,0.375429 -8.613513,0.368982 -4.861387,-0.005 -8.061955,-0.111447 -8.347447,-0.277731 z M 34.505492,33.24264 C 34.118616,33.03251 33.553071,32.457681 33.248734,31.965243 32.431331,30.642664 32.53125,29.236934 33.583761,27.251765 39.26201,16.541909 43.022766,9.2249678 42.908098,9.1102968 c -0.0774,-0.077449 -2.674887,0.4713858 -5.772079,1.2196292 -3.097192,0.748242 -5.988437,1.358936 -6.425003,1.357098 -1.525306,-0.0064 -3.204171,-1.473915 -3.33115,-2.9117552 -0.134519,-1.5232974 0.053,-2.1281551 0.932642,-3.0077602 0.758003,-0.7580053 1.317598,-1.0042731 3.37341,-1.4845878 1.355557,-0.3167092 5.854337,-1.4099294 9.99729,-2.4293783 C 45.826152,0.83409456 49.714467,0 50.323891,0 c 0.609425,0 1.423518,0.20670116 1.809084,0.45933591 0.976222,0.63964329 1.817234,2.37736279 1.649836,3.40892859 -0.0738,0.454743 -2.422189,5.2031826 -5.218664,10.5520855 -2.796465,5.348904 -5.015695,9.794069 -4.931616,9.878145 0.0841,0.08408 2.779865,-0.466136 5.990637,-1.222696 3.901995,-0.919433 6.096675,-1.318696 6.618551,-1.204071 1.10064,0.24174 2.275279,1.432795 2.651516,2.688567 0.280038,0.934668 0.253188,1.22009 -0.214208,2.276697 -0.293907,0.664432 -0.813403,1.385613 -1.15443,1.602627 -0.341037,0.217016 -2.763165,0.893065 -5.382522,1.502334 -2.619346,0.609269 -7.176176,1.691897 -10.12628,2.405843 -5.783488,1.399643 -6.437452,1.477562 -7.510303,0.894844 z" />
	</g>
</svg>
